<?xml version="1.0" encoding="UTF-8" standalone="no"?>
<!DOCTYPE svg PUBLIC "-//W3C//DTD SVG 1.1//EN" "http://www.w3.org/Graphics/SVG/1.1/DTD/svg11.dtd">
<svg version="1.1" xmlns="http://www.w3.org/2000/svg" xmlns:xl="http://www.w3.org/1999/xlink" xmlns:dc="http://purl.org/dc/elements/1.1/" viewBox="0 0 500 262" width="500" height="262">
  <defs>
    <linearGradient x1="0" x2="1" id="Gradient" gradientUnits="userSpaceOnUse">
      <stop offset="0" stop-color="#01693f"/>
      <stop offset=".6558894" stop-color="#007d6b"/>
      <stop offset="1" stop-color="#009193"/>
    </linearGradient>
    <linearGradient id="Obj_Gradient" xl:href="#Gradient" gradientTransform="translate(250 -2842171e-20) rotate(90) scale(262)"/>
    <linearGradient x1="0" x2="1" id="Gradient_2" gradientUnits="userSpaceOnUse">
      <stop offset="0" stop-color="#f71d69"/>
      <stop offset=".49930103" stop-color="#b66e51"/>
      <stop offset="1" stop-color="#68bc36"/>
    </linearGradient>
    <linearGradient id="Obj_Gradient_2" xl:href="#Gradient_2" gradientTransform="translate(372.853 72.9) scale(27.1)"/>
    <linearGradient x1="0" x2="1" id="Gradient_3" gradientUnits="userSpaceOnUse">
      <stop offset="0" stop-color="#68bc36"/>
      <stop offset=".49766393" stop-color="#52a49b"/>
      <stop offset="1" stop-color="#3a8eed"/>
    </linearGradient>
    <linearGradient id="Obj_Gradient_3" xl:href="#Gradient_3" gradientTransform="translate(372.853 107.74578) scale(25.6)"/>
    <linearGradient x1="0" x2="1" id="Gradient_4" gradientUnits="userSpaceOnUse">
      <stop offset="0" stop-color="#e5a4ed"/>
      <stop offset="0" stop-color="#ac90ca"/>
      <stop offset="1" stop-color="#6b7ca5"/>
    </linearGradient>
    <linearGradient id="Obj_Gradient_4" xl:href="#Gradient_4" gradientTransform="translate(400.753 107.74578) scale(25.6)"/>
    <linearGradient x1="0" x2="1" id="Gradient_5" gradientUnits="userSpaceOnUse">
      <stop offset="0" stop-color="#e5a4ed"/>
      <stop offset="0" stop-color="#ec83b5"/>
      <stop offset="1" stop-color="#f26077"/>
    </linearGradient>
    <linearGradient id="Obj_Gradient_5" xl:href="#Gradient_5" gradientTransform="translate(429.353 107.75) scale(25.8)"/>
    <linearGradient x1="0" x2="1" id="Gradient_6" gradientUnits="userSpaceOnUse">
      <stop offset="0" stop-color="#8efa00"/>
      <stop offset="0" stop-color="#55c72f"/>
      <stop offset="1" stop-color="#009051"/>
    </linearGradient>
    <linearGradient id="Obj_Gradient_6" xl:href="#Gradient_6" gradientTransform="translate(228.59597 34.011384) rotate(37.88474) scale(122.91207)"/>
  </defs>
  <metadata> Produced by OmniGraffle 7.18.4\n2021-03-21 22:46:31 +0000</metadata>
  <g id="Canvas_1" fill-opacity="1" stroke-opacity="1" stroke="none" stroke-dasharray="none" fill="none">
    <title>Canvas 1</title>
    <g id="Canvas_1_Layer_1">
      <title>Layer 1</title>
      <g id="Graphic_74">
        <path d="M 0 0 L 500 0 L 500 262 C 500 262 437.0647 207.3629 392.5831 207.3629 C 348.10155 207.3629 326.49806 239 261.0887 239 C 195.67936 239 167.2888 192 104.83871 192 C 42.38862 192 8242296e-19 144.98194 8242296e-19 144.98194 Z" fill="url(#Obj_Gradient)"/>
      </g>
      <g id="Group_19">
        <title>Layer_2</title>
        <g id="Group_38">
          <title>Computer</title>
          <g id="Graphic_67">
            <path d="M 355.753 152.4012 L 473.953 152.4012 C 473.953 152.4012 478.353 152.24606 478.353 148.21233 L 478.353 140.3 L 351.053 140.3 L 351.053 149.84134 C 351.753 151.47035 353.553 152.47878 355.753 152.4012" fill="#009051" fill-opacity=".7744205"/>
            <path d="M 355.753 152.4012 L 473.953 152.4012 C 473.953 152.4012 478.353 152.24606 478.353 148.21233 L 478.353 140.3 L 351.053 140.3 L 351.053 149.84134 C 351.753 151.47035 353.553 152.47878 355.753 152.4012" stroke="white" stroke-linecap="butt" stroke-linejoin="round" stroke-width="1"/>
          </g>
          <g id="Graphic_66">
            <path d="M 356 53 L 473.3 53 C 476.0614 53 478.3 55.238576 478.3 58 L 478.3 135.3 C 478.3 138.06143 476.0614 140.3 473.3 140.3 L 356 140.3 C 353.23858 140.3 351 138.06143 351 135.3 L 351 58 C 351 55.238576 353.23858 53 356 53 Z" fill="#009051" fill-opacity=".7744205"/>
            <path d="M 356 53 L 473.3 53 C 476.0614 53 478.3 55.238576 478.3 58 L 478.3 135.3 C 478.3 138.06143 476.0614 140.3 473.3 140.3 L 356 140.3 C 353.23858 140.3 351 138.06143 351 135.3 L 351 58 C 351 55.238576 353.23858 53 356 53 Z" stroke="white" stroke-linecap="butt" stroke-linejoin="round" stroke-width="1"/>
          </g>
          <g id="Graphic_65">
            <rect x="404.5566" y="152.40538" width="18.792746" height="19.29462" fill="#009051" fill-opacity=".7744205"/>
            <rect x="404.5566" y="152.40538" width="18.792746" height="19.29462" stroke="white" stroke-linecap="butt" stroke-linejoin="round" stroke-width="1"/>
          </g>
          <g id="Graphic_64">
            <path d="M 375.153 171.7 L 452.553 171.7 L 452.653 175.6 L 375.153 175.6 Z" fill="#009051" fill-opacity=".7744205"/>
            <path d="M 375.153 171.7 L 452.553 171.7 L 452.653 175.6 L 375.153 175.6 Z" stroke="white" stroke-linecap="butt" stroke-linejoin="round" stroke-width="1"/>
          </g>
          <g id="Graphic_63">
            <path d="M 413.553 142.4 C 415.653 142.4 417.253 144 417.253 146.1 C 417.253 148.2 415.653 149.8 413.553 149.8 C 411.453 149.8 409.853 148.2 409.853 146.1 C 409.853 144 411.553 142.4 413.553 142.4" fill="white"/>
            <path d="M 413.553 142.4 C 415.653 142.4 417.253 144 417.253 146.1 C 417.253 148.2 415.653 149.8 413.553 149.8 C 411.453 149.8 409.853 148.2 409.853 146.1 C 409.853 144 411.553 142.4 413.553 142.4" stroke="black" stroke-linecap="butt" stroke-linejoin="round" stroke-width="1"/>
          </g>
          <g id="Graphic_62">
            <rect x="354.953" y="57" width="119.5" height="78.4" fill="#f8f8ff"/>
            <rect x="354.953" y="57" width="119.5" height="78.4" stroke="black" stroke-linecap="butt" stroke-linejoin="round" stroke-width="1"/>
          </g>
          <g id="Graphic_61">
            <path d="M 360.953 61 C 361.953 61 362.853 61.9 362.853 62.9 C 362.853 63.9 361.953 64.8 360.953 64.8 C 359.953 64.8 359.053 63.9 359.053 62.9 C 359.053 61.9 359.953 61 360.953 61" fill="#fa5f5d"/>
            <path d="M 360.953 61 C 361.953 61 362.853 61.9 362.853 62.9 C 362.853 63.9 361.953 64.8 360.953 64.8 C 359.953 64.8 359.053 63.9 359.053 62.9 C 359.053 61.9 359.953 61 360.953 61" stroke="black" stroke-linecap="butt" stroke-linejoin="round" stroke-width="1"/>
          </g>
          <g id="Graphic_60">
            <path d="M 367.353 61 C 368.353 61 369.253 61.9 369.253 62.9 C 369.253 63.9 368.353 64.8 367.353 64.8 C 366.353 64.8 365.453 63.9 365.453 62.9 C 365.453 61.9 366.253 61 367.353 61" fill="#fdbc4e"/>
            <path d="M 367.353 61 C 368.353 61 369.253 61.9 369.253 62.9 C 369.253 63.9 368.353 64.8 367.353 64.8 C 366.353 64.8 365.453 63.9 365.453 62.9 C 365.453 61.9 366.253 61 367.353 61" stroke="black" stroke-linecap="butt" stroke-linejoin="round" stroke-width="1"/>
          </g>
          <g id="Graphic_59">
            <path d="M 373.953 61 C 374.953 61 375.853 61.9 375.853 62.9 C 375.853 63.9 374.953 64.8 373.953 64.8 C 372.953 64.8 372.053 63.9 372.053 62.9 C 372.153 61.9 372.953 61 373.953 61" fill="#37cd58"/>
            <path d="M 373.953 61 C 374.953 61 375.853 61.9 375.853 62.9 C 375.853 63.9 374.953 64.8 373.953 64.8 C 372.953 64.8 372.053 63.9 372.053 62.9 C 372.153 61.9 372.953 61 373.953 61" stroke="black" stroke-linecap="butt" stroke-linejoin="round" stroke-width="1"/>
          </g>
          <g id="Graphic_58">
            <path d="M 399.953 74.7 C 399.853 75.7 399.053 76.5 398.053 76.4 L 375.153 76.4 C 373.953 76.4 372.853 75.6 372.853 74.7 L 372.853 71.2 C 372.853 70.3 373.953 69.4 375.153 69.4 L 397.953 69.4 C 398.953 69.3 399.853 70.1 399.953 71.1 L 399.953 71.2 L 399.953 74.7 Z" fill="url(#Obj_Gradient_2)"/>
            <path d="M 399.953 74.7 C 399.853 75.7 399.053 76.5 398.053 76.4 L 375.153 76.4 C 373.953 76.4 372.853 75.6 372.853 74.7 L 372.853 71.2 C 372.853 70.3 373.953 69.4 375.153 69.4 L 397.953 69.4 C 398.953 69.3 399.853 70.1 399.953 71.1 L 399.953 71.2 L 399.953 74.7 Z" stroke="black" stroke-linecap="butt" stroke-linejoin="round" stroke-width="1"/>
          </g>
          <g id="Graphic_57">
            <path d="M 455.053 97.8 C 454.953 98.9 454.053 99.7 452.953 99.7 L 375.153 99.7 C 373.953 99.7 372.853 98.8 372.853 97.8 L 372.853 80.6 C 372.853 79.6 374.053 78.7 375.153 78.7 L 452.953 78.7 C 454.053 78.6 454.953 79.5 455.053 80.6 Z" stroke="black" stroke-linecap="butt" stroke-linejoin="round" stroke-width="1"/>
          </g>
          <g id="Graphic_56">
            <path d="M 398.453 112.5 C 398.453 113.5 397.553 114.4 396.553 114.4 L 375.153 114.4 C 373.953 114.4 372.853 113.5 372.853 112.5 L 372.853 103 C 372.853 102 374.053 101.1 375.153 101.1 L 396.453 101.1 C 397.453 101 398.353 101.8 398.453 102.9 L 398.453 103 L 398.453 112.5 Z" fill="url(#Obj_Gradient_3)"/>
            <path d="M 398.453 112.5 C 398.453 113.5 397.553 114.4 396.553 114.4 L 375.153 114.4 C 373.953 114.4 372.853 113.5 372.853 112.5 L 372.853 103 C 372.853 102 374.053 101.1 375.153 101.1 L 396.453 101.1 C 397.453 101 398.353 101.8 398.453 102.9 L 398.453 103 L 398.453 112.5 Z" stroke="black" stroke-linecap="butt" stroke-linejoin="round" stroke-width="1"/>
          </g>
          <g id="Graphic_55">
            <path d="M 426.353 112.5 C 426.353 113.5 425.453 114.4 424.453 114.4 L 403.053 114.4 C 401.853 114.4 400.753 113.5 400.753 112.5 L 400.753 103 C 400.753 102 401.953 101.1 403.053 101.1 L 424.353 101.1 C 425.353 101 426.253 101.8 426.353 102.9 L 426.353 103 L 426.353 112.5 Z" fill="url(#Obj_Gradient_4)"/>
            <path d="M 426.353 112.5 C 426.353 113.5 425.453 114.4 424.453 114.4 L 403.053 114.4 C 401.853 114.4 400.753 113.5 400.753 112.5 L 400.753 103 C 400.753 102 401.953 101.1 403.053 101.1 L 424.353 101.1 C 425.353 101 426.253 101.8 426.353 102.9 L 426.353 103 L 426.353 112.5 Z" stroke="black" stroke-linecap="butt" stroke-linejoin="round" stroke-width="1"/>
          </g>
          <g id="Graphic_54">
            <path d="M 455.053 112.5 C 454.953 113.6 454.053 114.4 452.953 114.4 L 431.653 114.4 C 430.453 114.5 429.553 113.6 429.353 112.5 L 429.353 103 C 429.453 101.8 430.453 101.1 431.653 101.1 L 452.953 101.1 C 454.053 101 455.053 101.9 455.153 103 Z" fill="url(#Obj_Gradient_5)"/>
            <path d="M 455.053 112.5 C 454.953 113.6 454.053 114.4 452.953 114.4 L 431.653 114.4 C 430.453 114.5 429.553 113.6 429.353 112.5 L 429.353 103 C 429.453 101.8 430.453 101.1 431.653 101.1 L 452.953 101.1 C 454.053 101 455.053 101.9 455.153 103 Z" stroke="black" stroke-linecap="butt" stroke-linejoin="round" stroke-width="1"/>
          </g>
          <g id="Graphic_53">
            <path d="M 426.353 117.9 C 426.153 118.3 425.853 118.5 425.453 118.6 C 425.353 118.6 425.353 118.6 425.253 118.3 L 401.853 118.3 C 401.353 118.6 400.653 118.3 400.653 117.9 L 400.653 117.6 C 400.653 117.2 401.353 116.8 401.853 116.7 L 425.253 116.7 C 425.653 116.8 425.853 117.1 425.953 117.4 C 425.953 117.5 425.953 117.5 426.153 117.6 Z" fill="#e9edfb"/>
            <path d="M 426.353 117.9 C 426.153 118.3 425.853 118.5 425.453 118.6 C 425.353 118.6 425.353 118.6 425.253 118.3 L 401.853 118.3 C 401.353 118.6 400.653 118.3 400.653 117.9 L 400.653 117.6 C 400.653 117.2 401.353 116.8 401.853 116.7 L 425.253 116.7 C 425.653 116.8 425.853 117.1 425.953 117.4 C 425.953 117.5 425.953 117.5 426.153 117.6 Z" stroke="black" stroke-linecap="butt" stroke-linejoin="round" stroke-width="1"/>
          </g>
          <g id="Graphic_52">
            <path d="M 426.353 120.9 C 426.153 121.3 425.853 121.6 425.453 121.7 C 425.453 121.7 425.353 121.7 425.353 121.4 L 401.853 121.4 C 401.353 121.7 400.653 121.4 400.653 120.9 L 400.653 120.6 C 400.653 120.2 401.353 119.9 401.853 119.8 L 425.253 119.8 C 425.653 119.9 426.053 120.2 426.153 120.6 Z" fill="#e9edfb"/>
            <path d="M 426.353 120.9 C 426.153 121.3 425.853 121.6 425.453 121.7 C 425.453 121.7 425.353 121.7 425.353 121.4 L 401.853 121.4 C 401.353 121.7 400.653 121.4 400.653 120.9 L 400.653 120.6 C 400.653 120.2 401.353 119.9 401.853 119.8 L 425.253 119.8 C 425.653 119.9 426.053 120.2 426.153 120.6 Z" stroke="black" stroke-linecap="butt" stroke-linejoin="round" stroke-width="1"/>
          </g>
          <g id="Graphic_51">
            <path d="M 426.353 124 C 426.153 124.5 425.853 124.8 425.453 124.9 C 425.453 124.7 425.453 124.7 425.453 124.5 L 401.953 124.5 C 401.553 124.7 401.053 124.7 400.853 124.3 C 400.753 124.2 400.753 124.1 400.753 124.1 L 400.753 123.8 C 400.753 123.4 401.453 123.2 401.953 123 L 425.353 123 C 425.753 123.1 426.153 123.4 426.253 123.8 Z" fill="#e9edfb"/>
            <path d="M 426.353 124 C 426.153 124.5 425.853 124.8 425.453 124.9 C 425.453 124.7 425.453 124.7 425.453 124.5 L 401.953 124.5 C 401.553 124.7 401.053 124.7 400.853 124.3 C 400.753 124.2 400.753 124.1 400.753 124.1 L 400.753 123.8 C 400.753 123.4 401.453 123.2 401.953 123 L 425.353 123 C 425.753 123.1 426.153 123.4 426.253 123.8 Z" stroke="black" stroke-linecap="butt" stroke-linejoin="round" stroke-width="1"/>
          </g>
          <g id="Graphic_50">
            <path d="M 426.353 127 C 426.153 127.5 425.853 127.9 425.453 128.3 L 401.953 128.3 C 401.453 127.9 400.753 127.4 400.753 127 L 400.753 126.7 C 400.753 126.3 401.453 125.8 401.953 126 L 425.353 126 C 425.653 125.9 425.953 126.2 426.053 126.5 C 426.053 126.6 426.053 126.7 426.053 126.7 C 426.053 126.7 426.053 126.7 426.253 126.8 Z" fill="#e9edfb"/>
            <path d="M 426.353 127 C 426.153 127.5 425.853 127.9 425.453 128.3 L 401.953 128.3 C 401.453 127.9 400.753 127.4 400.753 127 L 400.753 126.7 C 400.753 126.3 401.453 125.8 401.953 126 L 425.353 126 C 425.653 125.9 425.953 126.2 426.053 126.5 C 426.053 126.6 426.053 126.7 426.053 126.7 C 426.053 126.7 426.053 126.7 426.253 126.8 Z" stroke="black" stroke-linecap="butt" stroke-linejoin="round" stroke-width="1"/>
          </g>
          <g id="Graphic_49">
            <path d="M 413.353 130.1 C 413.353 130.5 413.153 130.6 412.653 130.6 L 401.853 130.6 C 401.353 130.6 400.753 130.4 400.753 130.1 L 400.753 129.8 C 400.753 129.4 401.353 129.1 401.853 129.1 L 412.653 129.1 C 413.053 129.1 413.353 129.4 413.353 129.8 Z" fill="#e9edfb"/>
            <path d="M 413.353 130.1 C 413.353 130.5 413.153 130.6 412.653 130.6 L 401.853 130.6 C 401.353 130.6 400.753 130.4 400.753 130.1 L 400.753 129.8 C 400.753 129.4 401.353 129.1 401.853 129.1 L 412.653 129.1 C 413.053 129.1 413.353 129.4 413.353 129.8 Z" stroke="black" stroke-linecap="butt" stroke-linejoin="round" stroke-width="1"/>
          </g>
          <g id="Graphic_48">
            <path d="M 455.053 117.9 C 454.553 118.3 454.653 118.6 454.153 118.3 L 430.753 118.3 C 430.353 118.6 429.953 118.4 429.953 118 C 429.953 118 429.953 118 430.153 117.9 L 430.153 117.6 C 429.953 117.2 430.253 116.8 430.653 116.7 L 454.053 116.7 C 454.553 116.9 454.453 117.2 454.953 117.6 L 454.953 117.9 Z" fill="#e9edfb"/>
            <path d="M 455.053 117.9 C 454.553 118.3 454.653 118.6 454.153 118.3 L 430.753 118.3 C 430.353 118.6 429.953 118.4 429.953 118 C 429.953 118 429.953 118 430.153 117.9 L 430.153 117.6 C 429.953 117.2 430.253 116.8 430.653 116.7 L 454.053 116.7 C 454.553 116.9 454.453 117.2 454.953 117.6 L 454.953 117.9 Z" stroke="black" stroke-linecap="butt" stroke-linejoin="round" stroke-width="1"/>
          </g>
          <g id="Graphic_47">
            <path d="M 455.053 120.9 C 454.553 121.3 454.653 121.7 454.153 121.4 L 430.753 121.4 C 430.253 121.7 429.953 121.4 430.253 120.9 L 430.253 120.6 C 430.053 120.2 430.353 119.9 430.753 119.8 L 454.153 119.8 C 454.653 120 454.553 120.2 455.053 120.6 Z" fill="#e9edfb"/>
            <path d="M 455.053 120.9 C 454.553 121.3 454.653 121.7 454.153 121.4 L 430.753 121.4 C 430.253 121.7 429.953 121.4 430.253 120.9 L 430.253 120.6 C 430.053 120.2 430.353 119.9 430.753 119.8 L 454.153 119.8 C 454.653 120 454.553 120.2 455.053 120.6 Z" stroke="black" stroke-linecap="butt" stroke-linejoin="round" stroke-width="1"/>
          </g>
          <g id="Graphic_46">
            <path d="M 455.053 124 C 454.553 124.4 454.653 124.9 454.153 124.5 L 430.753 124.5 C 430.253 124.8 429.953 124.5 430.253 124 L 430.253 123.7 C 430.053 123.3 430.353 123.1 430.753 122.9 L 454.153 122.9 C 454.653 123.1 454.553 123.3 455.053 123.7 Z" fill="#e9edfb"/>
            <path d="M 455.053 124 C 454.553 124.4 454.653 124.9 454.153 124.5 L 430.753 124.5 C 430.253 124.8 429.953 124.5 430.253 124 L 430.253 123.7 C 430.053 123.3 430.353 123.1 430.753 122.9 L 454.153 122.9 C 454.653 123.1 454.553 123.3 455.053 123.7 Z" stroke="black" stroke-linecap="butt" stroke-linejoin="round" stroke-width="1"/>
          </g>
          <g id="Graphic_45">
            <path d="M 455.053 127 C 454.553 127.4 454.653 127.9 454.153 128.3 L 430.753 128.3 C 430.253 127.8 429.953 127.4 430.253 127 L 430.253 126.7 C 430.053 126.5 430.053 126.2 430.253 126.1 C 430.453 126 430.553 125.9 430.753 126 L 454.253 126 C 454.753 125.8 454.653 126.3 455.153 126.7 L 455.153 127 Z" fill="#e9edfb"/>
            <path d="M 455.053 127 C 454.553 127.4 454.653 127.9 454.153 128.3 L 430.753 128.3 C 430.253 127.8 429.953 127.4 430.253 127 L 430.253 126.7 C 430.053 126.5 430.053 126.2 430.253 126.1 C 430.453 126 430.553 125.9 430.753 126 L 454.253 126 C 454.753 125.8 454.653 126.3 455.153 126.7 L 455.153 127 Z" stroke="black" stroke-linecap="butt" stroke-linejoin="round" stroke-width="1"/>
          </g>
          <g id="Graphic_44">
            <path d="M 442.153 130.1 C 442.153 130.5 442.153 130.6 441.753 130.6 L 430.853 130.6 C 430.353 130.6 430.153 130.4 430.153 130.1 L 430.153 129.8 C 430.153 129.4 430.453 129.1 430.853 129.1 L 441.653 129.1 C 442.153 129.1 442.053 129.4 442.053 129.8 Z" fill="#e9edfb"/>
            <path d="M 442.153 130.1 C 442.153 130.5 442.153 130.6 441.753 130.6 L 430.853 130.6 C 430.353 130.6 430.153 130.4 430.153 130.1 L 430.153 129.8 C 430.153 129.4 430.453 129.1 430.853 129.1 L 441.653 129.1 C 442.153 129.1 442.053 129.4 442.053 129.8 Z" stroke="black" stroke-linecap="butt" stroke-linejoin="round" stroke-width="1"/>
          </g>
          <g id="Graphic_43">
            <path d="M 397.653 117.9 C 397.953 118.3 397.853 118.6 397.353 118.3 L 373.853 118.3 C 373.553 118.5 373.153 118.5 372.953 118.2 C 372.853 118.1 372.853 118 372.753 117.9 L 372.753 117.6 C 372.953 117.1 373.253 116.8 373.753 116.7 L 397.153 116.7 C 397.653 116.9 397.753 117.2 397.453 117.6 Z" fill="#e9edfb"/>
            <path d="M 397.653 117.9 C 397.953 118.3 397.853 118.6 397.353 118.3 L 373.853 118.3 C 373.553 118.5 373.153 118.5 372.953 118.2 C 372.853 118.1 372.853 118 372.753 117.9 L 372.753 117.6 C 372.953 117.1 373.253 116.8 373.753 116.7 L 397.153 116.7 C 397.653 116.9 397.753 117.2 397.453 117.6 Z" stroke="black" stroke-linecap="butt" stroke-linejoin="round" stroke-width="1"/>
          </g>
          <g id="Graphic_42">
            <path d="M 397.653 120.9 C 397.953 121.3 397.853 121.7 397.353 121.4 L 373.853 121.4 C 373.353 121.8 372.953 121.4 372.853 120.9 L 372.853 120.6 C 372.953 120.2 373.353 119.9 373.853 119.8 L 397.253 119.8 C 397.753 120 397.853 120.2 397.553 120.6 Z" fill="#e9edfb"/>
            <path d="M 397.653 120.9 C 397.953 121.3 397.853 121.7 397.353 121.4 L 373.853 121.4 C 373.353 121.8 372.953 121.4 372.853 120.9 L 372.853 120.6 C 372.953 120.2 373.353 119.9 373.853 119.8 L 397.253 119.8 C 397.753 120 397.853 120.2 397.553 120.6 Z" stroke="black" stroke-linecap="butt" stroke-linejoin="round" stroke-width="1"/>
          </g>
          <g id="Graphic_41">
            <path d="M 397.653 124 C 397.953 124.4 397.853 124.9 397.353 124.5 L 373.853 124.5 C 373.353 124.9 372.953 124.5 372.853 124 L 372.853 123.7 C 372.953 123.3 373.353 123.1 373.853 122.9 L 397.253 122.9 C 397.753 123.1 397.853 123.3 397.553 123.7 Z" fill="#e9edfb"/>
            <path d="M 397.653 124 C 397.953 124.4 397.853 124.9 397.353 124.5 L 373.853 124.5 C 373.353 124.9 372.953 124.5 372.853 124 L 372.853 123.7 C 372.953 123.3 373.353 123.1 373.853 122.9 L 397.253 122.9 C 397.753 123.1 397.853 123.3 397.553 123.7 Z" stroke="black" stroke-linecap="butt" stroke-linejoin="round" stroke-width="1"/>
          </g>
          <g id="Graphic_40">
            <path d="M 390.653 126 L 397.353 126 C 397.853 125.8 397.953 126.3 397.653 126.7 L 397.653 127 C 397.953 127.4 397.853 127.9 397.353 128.3 L 373.853 128.3 C 373.353 128 373.053 127.5 372.853 127 L 372.853 126.7 C 372.953 126.2 373.353 125.9 373.853 126 L 390.653 126" fill="#e9edfb"/>
            <path d="M 390.653 126 L 397.353 126 C 397.853 125.8 397.953 126.3 397.653 126.7 L 397.653 127 C 397.953 127.4 397.853 127.9 397.353 128.3 L 373.853 128.3 C 373.353 128 373.053 127.5 372.853 127 L 372.853 126.7 C 372.953 126.2 373.353 125.9 373.853 126 L 390.653 126" stroke="black" stroke-linecap="butt" stroke-linejoin="round" stroke-width="1"/>
          </g>
          <g id="Graphic_39">
            <path d="M 386.053 130.1 C 386.053 130.5 385.853 130.6 385.353 130.6 L 373.753 130.6 C 373.253 130.6 372.853 130.4 372.853 130.1 L 372.853 129.8 C 372.953 129.4 373.353 129.1 373.753 129.1 L 385.353 129.1 C 385.753 129.1 386.053 129.4 386.053 129.7 C 386.053 129.7 386.053 129.7 386.053 129.8 Z" fill="#e9edfb"/>
            <path d="M 386.053 130.1 C 386.053 130.5 385.853 130.6 385.353 130.6 L 373.753 130.6 C 373.253 130.6 372.853 130.4 372.853 130.1 L 372.853 129.8 C 372.953 129.4 373.353 129.1 373.753 129.1 L 385.353 129.1 C 385.753 129.1 386.053 129.4 386.053 129.7 C 386.053 129.7 386.053 129.7 386.053 129.8 Z" stroke="black" stroke-linecap="butt" stroke-linejoin="round" stroke-width="1"/>
          </g>
        </g>
        <g id="Group_20">
          <g id="Graphic_27">
            <path d="M 307.7 128.8 C 307.7 130.9 306.1 132.5 304 132.5 L 250.2 132.5 C 248.2 132.5 246.5 130.9 246.5 128.8 L 246.5 14.7 C 246.5 12.7 248.1 11 250.2 11 L 304 11 C 306 11 307.7 12.6 307.7 14.7 Z" fill="url(#Obj_Gradient_6)"/>
            <path d="M 307.7 128.8 C 307.7 130.9 306.1 132.5 304 132.5 L 250.2 132.5 C 248.2 132.5 246.5 130.9 246.5 128.8 L 246.5 14.7 C 246.5 12.7 248.1 11 250.2 11 L 304 11 C 306 11 307.7 12.6 307.7 14.7 Z" stroke="white" stroke-linecap="butt" stroke-linejoin="round" stroke-width="1"/>
          </g>
          <g id="Graphic_26">
            <rect x="252.7" y="26.9" width="49.5" height="90.3" fill="white"/>
            <rect x="252.7" y="26.9" width="49.5" height="90.3" stroke="white" stroke-linecap="butt" stroke-linejoin="round" stroke-width="1"/>
          </g>
          <g id="Graphic_25">
            <path d="M 252.8 117.3 L 252.8 27.1 L 286.1 27 L 266.3 117.2 Z" fill="white"/>
            <path d="M 252.8 117.3 L 252.8 27.1 L 286.1 27 L 266.3 117.2 Z" stroke="white" stroke-linecap="butt" stroke-linejoin="round" stroke-width="1"/>
          </g>
          <g id="Graphic_24">
            <path d="M 273.4 19.9 L 280.7 19.9 C 281.2 19.9 281.7 20.3 281.7 20.9 C 281.7 21.4 281.3 21.9 280.7 21.9 L 273.4 21.9 C 272.9 21.9 272.4 21.5 272.4 20.9 C 272.4 20.3 272.8 19.9 273.4 19.9 Z" fill="white"/>
            <path d="M 273.4 19.9 L 280.7 19.9 C 281.2 19.9 281.7 20.3 281.7 20.9 C 281.7 21.4 281.3 21.9 280.7 21.9 L 273.4 21.9 C 272.9 21.9 272.4 21.5 272.4 20.9 C 272.4 20.3 272.8 19.9 273.4 19.9 Z" stroke="white" stroke-linecap="butt" stroke-linejoin="round" stroke-width="1"/>
          </g>
          <g id="Graphic_23">
            <circle cx="277.1" cy="16.4" r="0.900001888112423" fill="white"/>
            <circle cx="277.1" cy="16.4" r="0.900001888112423" stroke="white" stroke-linecap="butt" stroke-linejoin="round" stroke-width="1"/>
          </g>
          <g id="Graphic_22">
            <path d="M 277.1 121.8 C 278.7 121.8 280 123.1 280 124.7 C 280 126.3 278.7 127.6 277.1 127.6 C 275.5 127.6 274.2 126.3 274.2 124.7 C 274.3 123.1 275.5 121.8 277.1 121.8" stroke="white" stroke-linecap="butt" stroke-linejoin="round" stroke-width="1"/>
          </g>
          <g id="Graphic_21">
            <circle cx="277.1" cy="124.7" r="2.9000060839178" fill="white"/>
            <circle cx="277.1" cy="124.7" r="2.9000060839178" stroke="white" stroke-linecap="butt" stroke-linejoin="round" stroke-width="2"/>
          </g>
        </g>
      </g>
      <g id="Graphic_75">
        <rect x="351.6" y="137" width="126.2" height="4.055763" fill="#008b55"/>
      </g>
      <g id="Line_76">
        <line x1="351" y1="130" x2="351" y2="147.5" stroke="white" stroke-linecap="round" stroke-linejoin="round" stroke-width="1"/>
      </g>
      <g id="Line_77">
        <line x1="478.353" y1="128.6" x2="478.353" y2="146.1" stroke="white" stroke-linecap="round" stroke-linejoin="round" stroke-width="1"/>
      </g>
    </g>
  </g>
</svg>
